<svg width="59.000000" height="59.000000" viewBox="0 0 59 59" fill="none" xmlns="http://www.w3.org/2000/svg" xmlns:xlink="http://www.w3.org/1999/xlink">
	<desc>
			Created with Pixso.
	</desc>
	<defs>
		<filter id="filter_565_3407_dd" x="0.000000" y="0.000000" width="59.000000" height="59.000000" filterUnits="userSpaceOnUse" color-interpolation-filters="sRGB">
			<feFlood flood-opacity="0" result="BackgroundImageFix"/>
			<feColorMatrix in="SourceAlpha" type="matrix" values="0 0 0 0 0 0 0 0 0 0 0 0 0 0 0 0 0 0 127 0" result="hardAlpha"/>
			<feOffset dx="0" dy="4"/>
			<feGaussianBlur stdDeviation="1.33333"/>
			<feComposite in2="hardAlpha" operator="out" k2="-1" k3="1"/>
			<feColorMatrix type="matrix" values="0 0 0 0 0 0 0 0 0 0 0 0 0 0 0 0 0 0 0.25 0"/>
			<feBlend mode="normal" in2="BackgroundImageFix" result="effect_dropShadow_1"/>
			<feBlend mode="normal" in="SourceGraphic" in2="effect_dropShadow_1" result="shape"/>
		</filter>
	</defs>
	<g filter="url(#filter_565_3407_dd)">
		<path id="doc.viewfinder" d="M6.52 17.14C8.17 17.14 9.04 16.24 9.04 14.59L9.04 8.77C9.04 6.28 10.35 5.04 12.75 5.04L18.7 5.04C20.34 5.04 21.24 4.14 21.24 2.52C21.24 0.9 20.34 0 18.7 0L12.44 0C6.88 0 4 2.85 4 8.34L4 14.59C4 16.24 4.9 17.14 6.52 17.14ZM52.47 17.14C54.12 17.14 55 16.24 55 14.59L55 8.34C55 2.85 52.11 0 46.55 0L40.29 0C38.65 0 37.75 0.9 37.75 2.52C37.75 4.14 38.65 5.04 40.29 5.04L46.24 5.04C48.61 5.04 49.95 6.28 49.95 8.77L49.95 14.59C49.95 16.24 50.85 17.14 52.47 17.14ZM22.63 40.93L37.49 40.93C40.71 40.93 42.41 39.2 42.41 35.96L42.41 23.4C42.41 21.36 42.1 20.44 40.91 19.23L33.32 11.48C32.21 10.34 31.16 9.96 29.33 9.96L22.63 9.96C19.44 9.96 17.74 11.71 17.74 14.95L17.74 35.96C17.74 39.2 19.44 40.93 22.63 40.93ZM22.74 37.48C21.66 37.48 21.17 36.96 21.17 35.93L21.17 14.98C21.17 13.95 21.66 13.41 22.76 13.41L28.43 13.41L28.43 20.87C28.43 22.93 29.58 24.07 31.64 24.07L38.98 24.07L38.98 35.93C38.98 36.96 38.47 37.48 37.36 37.48L22.74 37.48ZM32.13 20.8C31.85 20.8 31.72 20.69 31.72 20.38L31.72 14.67L37.75 20.8L32.13 20.8ZM12.44 51L18.7 51C20.34 51 21.24 50.09 21.24 48.47C21.24 46.85 20.34 45.95 18.7 45.95L12.75 45.95C10.35 45.95 9.04 44.71 9.04 42.19L9.04 36.37C9.04 34.72 8.14 33.82 6.52 33.82C4.87 33.82 4 34.72 4 36.37L4 42.63C4 48.14 6.88 51 12.44 51ZM40.29 51L46.55 51C52.11 51 55 48.14 55 42.63L55 36.37C55 34.72 54.09 33.82 52.47 33.82C50.82 33.82 49.95 34.75 49.95 36.37L49.95 42.19C49.95 44.71 48.61 45.95 46.24 45.95L40.29 45.95C38.65 45.95 37.75 46.85 37.75 48.47C37.75 50.09 38.65 51 40.29 51Z" fill="#DAF5FE" fill-opacity="1.000000" fill-rule="nonzero"/>
	</g>
</svg>
